<svg width="114" height="31" viewBox="0 0 114 31" fill="none" xmlns="http://www.w3.org/2000/svg">
<g id="EVER">
<path d="M37.4406 0.289307L21.5623 30.4875H16.6345L0.777344 0.289307H5.68402L19.0984 25.8335L32.5128 0.289307H37.4406Z" fill="white"/>
<path d="M72.9245 30.4875H41.6944V0.289307H72.9245V4.60634H46.0114V26.1705H72.9245V30.4875ZM69.2603 17.5574H48.1594V13.2404H69.2603V17.5574Z" fill="white"/>
<path d="M113.147 30.4875H107.313L98.2581 21.8534H85.0332V17.5996H102.365C103.263 17.5996 104.105 17.4311 104.892 17.0942C105.678 16.7432 106.359 16.2729 106.934 15.6832C107.524 15.0936 107.987 14.4057 108.324 13.6195C108.661 12.8192 108.83 11.9699 108.83 11.0714C108.83 10.1729 108.661 9.33051 108.324 8.54432C107.987 7.75813 107.524 7.07723 106.934 6.50163C106.359 5.91198 105.678 5.44869 104.892 5.11175C104.105 4.77481 103.263 4.60634 102.365 4.60634H82.6115V30.4875H78.2944V0.289307H102.365C103.853 0.289307 105.25 0.577109 106.555 1.15271C107.861 1.71428 108.998 2.48643 109.967 3.46917C110.949 4.43787 111.722 5.57504 112.283 6.88068C112.859 8.18632 113.147 9.58322 113.147 11.0714C113.147 12.4191 112.915 13.6967 112.452 14.9041C111.988 16.0974 111.35 17.1714 110.535 18.126C109.721 19.0667 108.759 19.8528 107.65 20.4846C106.555 21.1023 105.369 21.5165 104.091 21.7271L113.147 30.4875Z" fill="white"/>
</g>
</svg>
