<svg width="205" height="56" viewBox="0 0 205 56" fill="none" xmlns="http://www.w3.org/2000/svg">
<g id="Group">
<g id="Group_2">
<g id="Group_3">
<path id="Vector" d="M32.9973 26.148C32.9431 20.1054 37.93 17.1656 38.158 17.0287C35.3338 12.8984 30.9562 12.3341 29.4179 12.2891C25.7413 11.901 22.175 14.4958 20.3021 14.4958C18.3919 14.4958 15.5078 12.3266 12.3994 12.3903C8.39945 12.4522 4.65744 14.7751 2.60512 18.3824C-1.63035 25.7374 1.5285 36.546 5.5864 42.4912C7.61629 45.4028 9.98822 48.6538 13.0929 48.5395C16.1302 48.4138 17.2648 46.5971 20.9302 46.5971C24.5619 46.5971 25.6273 48.5395 28.7936 48.4663C32.0534 48.4138 34.1057 45.5416 36.0646 42.6037C38.4104 39.2664 39.3524 35.9798 39.3898 35.811C39.3132 35.7848 33.059 33.3906 32.9973 26.148Z" fill="white"/>
<path id="Vector_2" d="M27.0161 8.37809C28.6498 6.32887 29.7675 3.54095 29.4572 0.711792C27.0928 0.816784 24.1358 2.35229 22.433 4.35652C20.9265 6.12263 19.5807 9.01741 19.9284 11.7397C22.5844 11.9384 25.3115 10.3954 27.0161 8.37809Z" fill="white"/>
</g>
</g>
<g id="Group_4">
<path id="Vector_3" d="M76.9529 48.1211H72.7081L70.3829 40.7923H62.3007L60.0858 48.1211H55.9531L63.9605 23.1705H68.9063L76.9529 48.1211ZM69.682 37.7176L67.5792 31.2024C67.3567 30.5369 66.9399 28.9695 66.325 26.5022H66.2502C66.0054 27.5633 65.611 29.1307 65.0689 31.2024L63.0035 37.7176H69.682Z" fill="white"/>
<path id="Vector_4" d="M97.5442 38.9043C97.5442 41.9641 96.7199 44.3826 95.0713 46.1581C93.5947 47.7386 91.7611 48.528 89.5723 48.528C87.2097 48.528 85.5126 47.6768 84.4789 45.9744H84.4041V55.4518H80.4191V36.0526C80.4191 34.129 80.3687 32.1548 80.2715 30.13H83.7761L83.9985 32.9816H84.0733C85.4023 30.833 87.4191 29.7606 90.1256 29.7606C92.2415 29.7606 94.0078 30.5987 95.4209 32.2767C96.8377 33.9566 97.5442 36.1651 97.5442 38.9043ZM93.4844 39.0505C93.4844 37.2994 93.0919 35.8558 92.3031 34.7196C91.4415 33.5347 90.2845 32.9423 88.834 32.9423C87.8508 32.9423 86.9574 33.2722 86.1593 33.9228C85.3593 34.579 84.8359 35.4358 84.5911 36.497C84.4677 36.9919 84.406 37.3969 84.406 37.7156V40.7154C84.406 42.0241 84.806 43.1284 85.606 44.0302C86.406 44.932 87.4452 45.3819 88.7237 45.3819C90.2247 45.3819 91.3929 44.8007 92.2284 43.6421C93.0657 42.4815 93.4844 40.9516 93.4844 39.0505Z" fill="white"/>
<path id="Vector_5" d="M118.173 38.9043C118.173 41.9641 117.349 44.3826 115.698 46.1581C114.224 47.7386 112.39 48.528 110.201 48.528C107.839 48.528 106.142 47.6768 105.11 45.9744H105.035V55.4518H101.05V36.0526C101.05 34.129 101 32.1548 100.902 30.13H104.407L104.629 32.9816H104.704C106.031 30.833 108.048 29.7606 110.756 29.7606C112.87 29.7606 114.637 30.5987 116.054 32.2767C117.465 33.9566 118.173 36.1651 118.173 38.9043ZM114.113 39.0505C114.113 37.2994 113.719 35.8558 112.93 34.7196C112.069 33.5347 110.915 32.9423 109.463 32.9423C108.478 32.9423 107.586 33.2722 106.786 33.9228C105.986 34.579 105.465 35.4358 105.22 36.497C105.099 36.9919 105.035 37.3969 105.035 37.7156V40.7154C105.035 42.0241 105.435 43.1284 106.231 44.0302C107.031 44.9301 108.071 45.3819 109.353 45.3819C110.854 45.3819 112.022 44.8007 112.857 43.6421C113.695 42.4815 114.113 40.9516 114.113 39.0505Z" fill="white"/>
<path id="Vector_6" d="M141.24 41.1242C141.24 43.2465 140.506 44.9733 139.031 46.3063C137.41 47.763 135.154 48.4905 132.255 48.4905C129.579 48.4905 127.433 47.973 125.809 46.9362L126.732 43.6046C128.481 44.6658 130.401 45.1982 132.493 45.1982C133.994 45.1982 135.162 44.857 136.001 44.1783C136.837 43.4996 137.253 42.5884 137.253 41.4523C137.253 40.4398 136.909 39.5868 136.22 38.895C135.534 38.2031 134.388 37.5601 132.788 36.9657C128.433 35.3365 126.257 32.9498 126.257 29.8113C126.257 27.7602 127.02 26.0784 128.547 24.7698C130.068 23.4593 132.098 22.8049 134.637 22.8049C136.9 22.8049 138.78 23.2005 140.281 23.9898L139.285 27.2483C137.883 26.4834 136.298 26.1009 134.524 26.1009C133.123 26.1009 132.027 26.4478 131.242 27.1377C130.579 27.7546 130.246 28.5064 130.246 29.3969C130.246 30.3831 130.625 31.1987 131.388 31.8399C132.052 32.4323 133.257 33.0735 135.007 33.7654C137.147 34.6297 138.719 35.6402 139.73 36.7989C140.737 37.9538 141.24 39.3993 141.24 41.1242Z" fill="white"/>
<path id="Vector_7" d="M154.415 33.1298H150.023V41.8647C150.023 44.0864 150.797 45.1964 152.348 45.1964C153.06 45.1964 153.651 45.1345 154.118 45.0107L154.229 48.0461C153.443 48.3405 152.41 48.4886 151.129 48.4886C149.556 48.4886 148.326 48.0068 147.438 47.045C146.554 46.0813 146.109 44.4652 146.109 42.1947V33.126H143.492V30.1263H146.109V26.8321L150.023 25.6472V30.1263H154.415V33.1298Z" fill="white"/>
<path id="Vector_8" d="M174.234 38.9776C174.234 41.743 173.445 44.0135 171.871 45.789C170.221 47.617 168.03 48.5282 165.3 48.5282C162.668 48.5282 160.573 47.6526 159.01 45.9015C157.447 44.1504 156.666 41.9399 156.666 39.2757C156.666 36.4878 157.47 34.2042 159.083 32.4287C160.692 30.6514 162.864 29.7627 165.595 29.7627C168.227 29.7627 170.344 30.6383 171.942 32.3912C173.471 34.0917 174.234 36.2872 174.234 38.9776ZM170.1 39.107C170.1 37.4477 169.746 36.0247 169.03 34.8379C168.195 33.4018 167 32.6856 165.453 32.6856C163.851 32.6856 162.634 33.4037 161.799 34.8379C161.083 36.0266 160.73 37.4721 160.73 39.182C160.73 40.8412 161.083 42.2642 161.799 43.4492C162.66 44.8853 163.864 45.6015 165.417 45.6015C166.939 45.6015 168.133 44.8703 168.995 43.4117C169.729 42.2024 170.1 40.7644 170.1 39.107Z" fill="white"/>
<path id="Vector_9" d="M187.186 33.6453C186.792 33.5722 186.371 33.5347 185.93 33.5347C184.528 33.5347 183.444 34.0653 182.681 35.1283C182.018 36.0658 181.685 37.2507 181.685 38.6812V48.1211H177.702L177.739 35.7958C177.739 33.7222 177.689 31.8342 177.59 30.1318H181.061L181.207 33.5741H181.317C181.737 32.391 182.401 31.4386 183.309 30.7243C184.197 30.0812 185.156 29.7606 186.19 29.7606C186.558 29.7606 186.891 29.7869 187.186 29.8337V33.6453Z" fill="white"/>
<path id="Vector_10" d="M205.008 38.2744C205.008 38.9906 204.962 39.5943 204.863 40.0874H192.908C192.954 41.8648 193.532 43.224 194.642 44.1615C195.65 44.9995 196.952 45.4195 198.552 45.4195C200.322 45.4195 201.937 45.1364 203.39 44.5683L204.014 47.3431C202.317 48.0855 200.313 48.4549 198.001 48.4549C195.22 48.4549 193.037 47.6337 191.448 45.9932C189.863 44.3527 189.068 42.1497 189.068 39.3862C189.068 36.6733 189.807 34.4141 191.285 32.6123C192.833 30.6887 194.924 29.7269 197.556 29.7269C200.141 29.7269 202.098 30.6887 203.427 32.6123C204.479 34.1403 205.008 36.0302 205.008 38.2744ZM201.208 37.2376C201.235 36.0527 200.975 35.029 200.435 34.1647C199.745 33.0529 198.685 32.498 197.259 32.498C195.956 32.498 194.896 33.0398 194.087 34.1272C193.423 34.9915 193.029 36.0283 192.908 37.2357H201.208V37.2376Z" fill="white"/>
</g>
<g id="Group_5">
<path id="Vector_11" d="M68.3651 7.82129C68.3651 10.028 67.7053 11.6891 66.3875 12.8047C65.167 13.834 63.4324 14.3495 61.1857 14.3495C60.0717 14.3495 59.1184 14.3008 58.3203 14.2033V2.14609C59.3614 1.97736 60.4829 1.89111 61.6941 1.89111C63.8343 1.89111 65.4473 2.35795 66.5352 3.29163C67.7539 4.34718 68.3651 5.85644 68.3651 7.82129ZM66.2997 7.87566C66.2997 6.44514 65.9221 5.34835 65.167 4.58341C64.4118 3.82034 63.3091 3.43787 61.8567 3.43787C61.2399 3.43787 60.7147 3.47912 60.2792 3.56536V12.7315C60.5203 12.769 60.9614 12.7859 61.6025 12.7859C63.1016 12.7859 64.2586 12.3678 65.0735 11.5316C65.8885 10.6954 66.2997 9.47679 66.2997 7.87566Z" fill="white"/>
<path id="Vector_12" d="M79.3173 9.74856C79.3173 11.1078 78.9304 12.2215 78.1566 13.0952C77.3454 13.9932 76.2706 14.4413 74.9286 14.4413C73.6351 14.4413 72.6052 14.012 71.837 13.1496C71.0707 12.289 70.6875 11.2035 70.6875 9.8948C70.6875 8.52615 71.0819 7.40312 71.8744 6.53131C72.6669 5.6595 73.7323 5.22266 75.0744 5.22266C76.3678 5.22266 77.4071 5.652 78.194 6.51256C78.9416 7.34874 79.3173 8.42866 79.3173 9.74856ZM77.2856 9.81231C77.2856 8.99674 77.1099 8.29742 76.7603 7.71434C76.3491 7.00939 75.7641 6.65692 75.0033 6.65692C74.2164 6.65692 73.6183 7.00939 73.2071 7.71434C72.8557 8.29742 72.6819 9.00799 72.6819 9.84793C72.6819 10.6635 72.8576 11.3628 73.2071 11.9459C73.6314 12.6508 74.222 13.0033 74.9846 13.0033C75.7323 13.0033 76.3192 12.6452 76.7416 11.9271C77.1043 11.3328 77.2856 10.6279 77.2856 9.81231Z" fill="white"/>
<path id="Vector_13" d="M94.0006 5.40259L91.2436 14.2407H89.4492L88.3072 10.4028C88.0175 9.44478 87.782 8.49235 87.5988 7.54743H87.5633C87.3932 8.5186 87.1577 9.46915 86.8549 10.4028L85.6418 14.2407H83.8269L81.2344 5.40259H83.2474L84.2437 9.60414C84.4848 10.5978 84.6829 11.5446 84.8418 12.4408H84.8773C85.0231 11.7021 85.2642 10.7609 85.6044 9.62289L86.8549 5.40446H88.4511L89.6492 9.5329C89.939 10.5397 90.1745 11.509 90.3558 12.4427H90.41C90.5427 11.5334 90.7427 10.5641 91.0081 9.5329L92.0772 5.40446H94.0006V5.40259Z" fill="white"/>
<path id="Vector_14" d="M104.155 14.2406H102.196V9.17849C102.196 7.61861 101.605 6.83867 100.42 6.83867C99.8391 6.83867 99.3699 7.05241 99.0054 7.48175C98.6447 7.91109 98.4615 8.4173 98.4615 8.99663V14.2387H96.5027V7.92796C96.5027 7.15177 96.4784 6.30996 96.4316 5.39878H98.1531L98.2447 6.78055H98.2989C98.5269 6.35121 98.8671 5.99686 99.3139 5.71376C99.8447 5.38378 100.439 5.21692 101.09 5.21692C101.912 5.21692 102.596 5.48315 103.14 6.01748C103.817 6.67181 104.155 7.64861 104.155 8.94601V14.2406Z" fill="white"/>
<path id="Vector_15" d="M109.557 14.2407H107.6V1.34729H109.557V14.2407Z" fill="white"/>
<path id="Vector_16" d="M121.089 9.74856C121.089 11.1078 120.702 12.2215 119.928 13.0952C119.117 13.9932 118.04 14.4413 116.7 14.4413C115.405 14.4413 114.375 14.012 113.609 13.1496C112.842 12.289 112.459 11.2035 112.459 9.8948C112.459 8.52615 112.853 7.40312 113.646 6.53131C114.438 5.6595 115.504 5.22266 116.844 5.22266C118.139 5.22266 119.177 5.652 119.965 6.51256C120.713 7.34874 121.089 8.42866 121.089 9.74856ZM119.055 9.81231C119.055 8.99674 118.879 8.29742 118.53 7.71434C118.121 7.00939 117.534 6.65692 116.775 6.65692C115.986 6.65692 115.388 7.00939 114.979 7.71434C114.627 8.29742 114.453 9.00799 114.453 9.84793C114.453 10.6635 114.629 11.3628 114.979 11.9459C115.403 12.6508 115.994 13.0033 116.756 13.0033C117.504 13.0033 118.089 12.6452 118.511 11.9271C118.876 11.3328 119.055 10.6279 119.055 9.81231Z" fill="white"/>
<path id="Vector_17" d="M130.57 14.2407H128.811L128.665 13.2227H128.611C128.009 14.0345 127.151 14.4413 126.037 14.4413C125.205 14.4413 124.532 14.1732 124.026 13.6408C123.566 13.1571 123.336 12.5552 123.336 11.8409C123.336 10.761 123.785 9.93792 124.687 9.36797C125.588 8.79801 126.856 8.51866 128.487 8.53178V8.36679C128.487 7.20251 127.878 6.6213 126.657 6.6213C125.788 6.6213 125.022 6.84066 124.36 7.27563L123.962 5.98572C124.781 5.47764 125.792 5.22266 126.985 5.22266C129.287 5.22266 130.442 6.44131 130.442 8.87863V12.1334C130.442 13.0164 130.485 13.7195 130.57 14.2407ZM128.536 11.2035V9.84043C126.375 9.80293 125.295 10.3973 125.295 11.6215C125.295 12.0828 125.418 12.4277 125.67 12.6583C125.923 12.8889 126.244 13.0033 126.627 13.0033C127.057 13.0033 127.459 12.8665 127.826 12.5946C128.194 12.3209 128.42 11.974 128.504 11.5484C128.525 11.4528 128.536 11.3366 128.536 11.2035Z" fill="white"/>
<path id="Vector_18" d="M141.7 14.2407H139.962L139.87 12.8214H139.816C139.261 13.9013 138.315 14.4413 136.986 14.4413C135.925 14.4413 135.04 14.0232 134.34 13.187C133.639 12.3508 133.289 11.2653 133.289 9.93227C133.289 8.50175 133.668 7.34309 134.431 6.45815C135.169 5.63321 136.074 5.22075 137.151 5.22075C138.334 5.22075 139.162 5.62009 139.633 6.42066H139.67V1.34729H141.631V11.8596C141.631 12.7202 141.653 13.5132 141.7 14.2407ZM139.67 10.5135V9.03983C139.67 8.78485 139.652 8.57862 139.616 8.42113C139.506 7.94867 139.268 7.5512 138.908 7.2306C138.543 6.90999 138.104 6.74876 137.597 6.74876C136.867 6.74876 136.295 7.03936 135.874 7.62244C135.457 8.20552 135.246 8.94984 135.246 9.85915C135.246 10.7328 135.446 11.4415 135.848 11.9871C136.272 12.5683 136.844 12.8589 137.56 12.8589C138.203 12.8589 138.717 12.6171 139.108 12.1315C139.485 11.6834 139.67 11.1434 139.67 10.5135Z" fill="white"/>
<path id="Vector_19" d="M158.454 9.74856C158.454 11.1078 158.067 12.2215 157.293 13.0952C156.482 13.9932 155.409 14.4413 154.065 14.4413C152.774 14.4413 151.744 14.012 150.974 13.1496C150.207 12.289 149.824 11.2035 149.824 9.8948C149.824 8.52615 150.219 7.40312 151.011 6.53131C151.804 5.6595 152.869 5.22266 154.213 5.22266C155.505 5.22266 156.546 5.652 157.331 6.51256C158.078 7.34874 158.454 8.42866 158.454 9.74856ZM156.424 9.81231C156.424 8.99674 156.248 8.29742 155.899 7.71434C155.486 7.00939 154.903 6.65692 154.14 6.65692C153.355 6.65692 152.757 7.00939 152.344 7.71434C151.992 8.29742 151.819 9.00799 151.819 9.84793C151.819 10.6635 151.994 11.3628 152.344 11.9459C152.768 12.6508 153.359 13.0033 154.121 13.0033C154.869 13.0033 155.458 12.6452 155.88 11.9271C156.241 11.3328 156.424 10.6279 156.424 9.81231Z" fill="white"/>
<path id="Vector_20" d="M168.985 14.2406H167.028V9.17849C167.028 7.61861 166.437 6.83867 165.251 6.83867C164.669 6.83867 164.2 7.05241 163.837 7.48175C163.475 7.91109 163.294 8.4173 163.294 8.99663V14.2387H161.333V7.92796C161.333 7.15177 161.31 6.30996 161.264 5.39878H162.983L163.075 6.78055H163.129C163.359 6.35121 163.699 5.99686 164.144 5.71376C164.677 5.38378 165.269 5.21692 165.922 5.21692C166.742 5.21692 167.426 5.48315 167.97 6.01748C168.649 6.67181 168.985 7.64861 168.985 8.94601V14.2406Z" fill="white"/>
<path id="Vector_21" d="M182.169 6.87439H180.012V11.1678C180.012 12.259 180.395 12.8046 181.154 12.8046C181.505 12.8046 181.797 12.7746 182.027 12.7127L182.077 14.2032C181.691 14.3494 181.182 14.4226 180.556 14.4226C179.782 14.4226 179.18 14.1863 178.745 13.7139C178.307 13.2414 178.091 12.4465 178.091 11.3309V6.87439H176.803V5.40262H178.091V3.78274L180.01 3.20154V5.40075H182.167V6.87439H182.169Z" fill="white"/>
<path id="Vector_22" d="M192.539 14.2407H190.578V9.21607C190.578 7.63181 189.988 6.83875 188.804 6.83875C187.896 6.83875 187.275 7.29809 186.935 8.21677C186.877 8.40988 186.844 8.64611 186.844 8.92359V14.2388H184.887V1.34729H186.844V6.67376H186.881C187.498 5.70446 188.382 5.22075 189.528 5.22075C190.339 5.22075 191.01 5.48698 191.543 6.02131C192.206 6.68689 192.539 7.67681 192.539 8.98546V14.2407Z" fill="white"/>
<path id="Vector_23" d="M203.236 9.40362C203.236 9.75609 203.21 10.0523 203.163 10.2942H197.288C197.314 11.1679 197.595 11.8334 198.139 12.2946C198.636 12.7071 199.277 12.9134 200.062 12.9134C200.931 12.9134 201.724 12.7746 202.438 12.4953L202.744 13.8602C201.909 14.2239 200.926 14.4057 199.787 14.4057C198.423 14.4057 197.348 14.0026 196.571 13.1965C195.789 12.3903 195.402 11.3085 195.402 9.95108C195.402 8.61805 195.763 7.50814 196.49 6.6232C197.249 5.67827 198.275 5.20581 199.571 5.20581C200.838 5.20581 201.8 5.67827 202.451 6.6232C202.976 7.37315 203.236 8.3012 203.236 9.40362ZM201.367 8.89553C201.382 8.31245 201.253 7.80999 200.987 7.38627C200.647 6.84069 200.129 6.56696 199.428 6.56696C198.789 6.56696 198.268 6.83319 197.87 7.36752C197.544 7.79311 197.352 8.3012 197.288 8.89553H201.367Z" fill="white"/>
</g>
</g>
</svg>
