<svg width="228" height="55" viewBox="0 0 228 55" fill="none" xmlns="http://www.w3.org/2000/svg">
<g id="Group">
<path id="Vector" d="M114.84 29.9436C113.193 29.9513 111.585 30.4484 110.219 31.372C108.853 32.2957 107.79 33.6045 107.165 35.1332C106.54 36.662 106.381 38.3423 106.707 39.9619C107.033 41.5815 107.83 43.0679 108.998 44.2336C110.165 45.3992 111.651 46.1918 113.267 46.5113C114.883 46.8308 116.558 46.6629 118.079 46.0288C119.6 45.3947 120.9 44.3228 121.814 42.9484C122.728 41.574 123.216 39.9587 123.216 38.3064C123.232 37.2004 123.026 36.1025 122.611 35.078C122.195 34.0536 121.578 33.1235 120.796 32.3432C120.015 31.5629 119.085 30.9483 118.061 30.5361C117.038 30.1238 115.942 29.9223 114.84 29.9436ZM114.84 43.3831C113.827 43.4542 112.816 43.2179 111.938 42.705C111.061 42.1921 110.358 41.4263 109.92 40.5072C109.482 39.588 109.33 38.558 109.484 37.5511C109.637 36.5441 110.089 35.6068 110.781 34.861C111.473 34.1151 112.372 33.5953 113.362 33.3689C114.352 33.1426 115.388 33.2203 116.333 33.5919C117.279 33.9635 118.091 34.6118 118.664 35.4526C119.238 36.2934 119.546 37.2877 119.548 38.3064C119.58 38.9518 119.482 39.5971 119.261 40.2041C119.04 40.8111 118.7 41.3676 118.261 41.8408C117.823 42.3139 117.294 42.6941 116.706 42.959C116.119 43.2239 115.484 43.3681 114.84 43.3831ZM96.5763 29.9436C94.9282 29.9474 93.3182 30.4412 91.9497 31.3625C90.5812 32.2838 89.5157 33.5912 88.8877 35.1197C88.2596 36.6481 88.0973 38.329 88.4212 39.9499C88.7451 41.5708 89.5407 43.0591 90.7075 44.2267C91.8743 45.3943 93.3599 46.1888 94.9766 46.5099C96.5933 46.831 98.2687 46.6643 99.791 46.0307C101.313 45.3972 102.614 44.3253 103.53 42.9505C104.445 41.5756 104.933 39.9595 104.933 38.3064C104.949 37.2004 104.743 36.1025 104.327 35.078C103.912 34.0536 103.295 33.1235 102.513 32.3432C101.731 31.5629 100.801 30.9483 99.778 30.5361C98.7547 30.1238 97.6592 29.9223 96.5567 29.9436H96.5763ZM96.5763 43.3831C95.5628 43.4582 94.5501 43.2254 93.6703 42.7152C92.7904 42.2049 92.0841 41.4408 91.6433 40.5222C91.2025 39.6037 91.0475 38.5733 91.1987 37.5652C91.3498 36.5571 91.8 35.618 92.4907 34.8701C93.1813 34.1223 94.0805 33.6003 95.071 33.3722C96.0616 33.1441 97.0977 33.2203 98.0444 33.5911C98.9911 33.9619 99.8046 34.6099 100.379 35.451C100.953 36.292 101.262 37.2869 101.265 38.3064C101.296 38.9518 101.199 39.5971 100.978 40.2041C100.757 40.8111 100.417 41.3676 99.9782 41.8408C99.5394 42.3139 99.0106 42.6941 98.423 42.959C97.8353 43.2239 97.2008 43.3681 96.5567 43.3831H96.5763ZM74.8208 32.5213V36.0632H83.2955C83.1626 37.7314 82.4713 39.3056 81.3338 40.5299C80.4859 41.3962 79.4666 42.0748 78.3416 42.5221C77.2165 42.9695 76.0105 43.1756 74.8012 43.1273C72.3039 43.1273 69.9088 42.1322 68.1429 40.3609C66.377 38.5896 65.385 36.1872 65.385 33.6822C65.385 31.1772 66.377 28.7749 68.1429 27.0036C69.9088 25.2323 72.3039 24.2372 74.8012 24.2372C77.1902 24.1981 79.4971 25.1109 81.2161 26.7755L83.7074 24.2765C82.547 23.0979 81.1626 22.1649 79.6361 21.5329C78.1096 20.9008 76.4722 20.5825 74.8208 20.5969C73.0769 20.5288 71.3371 20.8146 69.7059 21.437C68.0747 22.0595 66.5855 23.0059 65.3276 24.2195C64.0697 25.433 63.069 26.8888 62.3855 28.4996C61.7019 30.1104 61.3496 31.843 61.3496 33.5937C61.3496 35.3443 61.7019 37.0769 62.3855 38.6877C63.069 40.2985 64.0697 41.7543 65.3276 42.9679C66.5855 44.1815 68.0747 45.1279 69.7059 45.7503C71.3371 46.3728 73.0769 46.6586 74.8208 46.5905C76.5 46.6666 78.1759 46.3811 79.7358 45.7532C81.2957 45.1253 82.7035 44.1695 83.8644 42.9502C85.9196 40.6852 87.0169 37.7077 86.9247 34.6464C86.931 33.9006 86.8653 33.156 86.7285 32.4229L74.8208 32.5213ZM163.706 35.2761C163.195 33.7663 162.238 32.448 160.963 31.4958C159.688 30.5435 158.154 30.0022 156.566 29.9436C155.493 29.9415 154.431 30.1601 153.445 30.5861C152.46 31.012 151.572 31.6362 150.836 32.42C150.101 33.2038 149.533 34.1306 149.169 35.143C148.805 36.1555 148.652 37.2321 148.719 38.3064C148.695 39.4062 148.892 40.4995 149.299 41.521C149.706 42.5426 150.314 43.4714 151.087 44.252C151.859 45.0326 152.781 45.649 153.797 46.0643C154.812 46.4796 155.901 46.6853 156.997 46.6692C158.37 46.6766 159.722 46.3426 160.934 45.697C162.146 45.0514 163.179 44.1144 163.942 42.9699L161.097 41.0022C160.673 41.7121 160.072 42.2993 159.353 42.7063C158.634 43.1133 157.823 43.3262 156.997 43.3241C156.148 43.3566 155.308 43.1318 154.587 42.6791C153.866 42.2264 153.298 41.5667 152.956 40.7857L164.118 36.1616L163.706 35.2761ZM152.328 38.0703C152.289 37.4616 152.37 36.8512 152.569 36.2746C152.767 35.698 153.078 35.167 153.484 34.7125C153.889 34.2581 154.381 33.8893 154.931 33.628C155.48 33.3666 156.076 33.2178 156.683 33.1903C157.316 33.1485 157.947 33.294 158.498 33.6089C159.049 33.9237 159.496 34.394 159.783 34.9612L152.328 38.0703ZM143.265 46.1773H146.934V21.5807H143.265V46.1773ZM137.262 31.8129H137.125C136.572 31.1929 135.895 30.697 135.138 30.3579C134.38 30.0188 133.56 29.8441 132.731 29.8452C130.587 29.9494 128.565 30.8771 127.085 32.4358C125.604 33.9946 124.779 36.0649 124.779 38.2178C124.779 40.3707 125.604 42.4411 127.085 43.9998C128.565 45.5586 130.587 46.4862 132.731 46.5905C133.562 46.6045 134.386 46.4356 135.146 46.0956C135.905 45.7557 136.58 45.2529 137.125 44.6228H137.243V45.8231C137.243 49.0305 135.536 50.7424 132.79 50.7424C131.875 50.7209 130.987 50.4269 130.24 49.8978C129.492 49.3686 128.918 48.6284 128.592 47.7711L125.394 49.1092C125.996 50.5778 127.021 51.8326 128.339 52.7126C129.657 53.5926 131.207 54.0576 132.79 54.0482C137.086 54.0482 140.637 51.5098 140.637 45.3311V30.4355H137.262V31.8129ZM133.064 43.3831C131.799 43.2712 130.621 42.688 129.763 41.7483C128.905 40.8086 128.43 39.5806 128.43 38.3064C128.43 37.0322 128.905 35.8042 129.763 34.8645C130.621 33.9248 131.799 33.3415 133.064 33.2297C133.692 33.2619 134.306 33.4199 134.872 33.6941C135.438 33.9683 135.943 34.3533 136.358 34.8265C136.773 35.2996 137.089 35.8512 137.288 36.4488C137.487 37.0465 137.565 37.6781 137.517 38.3064C137.571 38.9374 137.496 39.5728 137.298 40.174C137.1 40.7753 136.782 41.33 136.364 41.8046C135.946 42.2791 135.436 42.6637 134.866 42.935C134.295 43.2063 133.676 43.3588 133.045 43.3831H133.064ZM180.891 21.5807H172.122V46.1773H175.791V36.8503H180.911C181.956 36.9256 183.006 36.7841 183.995 36.4345C184.983 36.085 185.889 35.5349 186.657 34.8186C187.424 34.1023 188.036 33.2351 188.454 32.271C188.873 31.307 189.089 30.2669 189.089 29.2155C189.089 28.1641 188.873 27.124 188.454 26.16C188.036 25.196 187.424 24.3287 186.657 23.6124C185.889 22.8961 184.983 22.346 183.995 21.9965C183.006 21.6469 181.956 21.5054 180.911 21.5807H180.891ZM180.891 33.3871H175.771V25.0046H180.97C182.086 25.0046 183.156 25.4493 183.945 26.2408C184.734 27.0324 185.177 28.1059 185.177 29.2253C185.177 30.3448 184.734 31.4183 183.945 32.2099C183.156 33.0014 182.086 33.4461 180.97 33.4461L180.891 33.3871ZM203.51 29.8452C202.174 29.7651 200.844 30.0781 199.684 30.7458C198.523 31.4135 197.583 32.4068 196.977 33.6035L200.234 34.9612C200.555 34.3677 201.041 33.8806 201.633 33.5591C202.225 33.2377 202.898 33.0959 203.569 33.1509C204.034 33.0964 204.506 33.1354 204.957 33.2657C205.407 33.396 205.827 33.615 206.192 33.9099C206.558 34.2048 206.861 34.5697 207.084 34.9833C207.307 35.3969 207.446 35.851 207.492 36.319V36.5748C206.314 35.949 205 35.6246 203.667 35.6303C200.155 35.6303 196.604 37.598 196.604 41.1596C196.639 41.919 196.825 42.6637 197.152 43.3498C197.478 44.0358 197.939 44.6492 198.506 45.1537C199.073 45.6581 199.735 46.0435 200.453 46.2869C201.171 46.5303 201.93 46.6268 202.686 46.5708C203.61 46.6374 204.534 46.4532 205.363 46.0378C206.191 45.6223 206.893 44.9908 207.394 44.2095H207.512V46.1773H211.043V36.7125C211.043 32.4032 207.786 29.9042 203.608 29.9042L203.51 29.8452ZM203.059 43.3241C201.862 43.3241 200.194 42.7141 200.194 41.2383C200.194 39.2706 202.274 38.6212 204.118 38.6212C205.283 38.5924 206.435 38.8778 207.453 39.4477C207.33 40.513 206.828 41.498 206.038 42.2211C205.249 42.9443 204.225 43.357 203.157 43.3831L203.059 43.3241ZM223.912 30.4355L219.714 41.1005H219.596L215.241 30.4355H211.317L217.85 45.3508L214.123 53.6349H217.948L227.992 30.4355H223.912ZM190.935 46.1773H194.603V21.5807H190.935V46.1773Z" fill="white"/>
<g id="Vector_2">
<path d="M74.0694 7.41813C74.1027 8.13987 73.9895 8.86088 73.7366 9.53738C73.4837 10.2139 73.0963 10.8318 72.5981 11.3536C72.0418 11.9333 71.3699 12.3888 70.6263 12.6906C69.8826 12.9923 69.084 13.1335 68.2823 13.1048C67.066 13.0953 65.8796 12.7259 64.8717 12.043C63.8637 11.36 63.0792 10.3939 62.6163 9.26565C62.1533 8.1374 62.0327 6.89721 62.2694 5.70048C62.5061 4.50375 63.0896 3.40371 63.9469 2.53818C64.5103 1.96121 65.1858 1.50635 65.9315 1.20174C66.6772 0.897122 67.4773 0.749237 68.2823 0.767232C69.1116 0.76446 69.9328 0.931868 70.6952 1.25916C71.4051 1.54636 72.037 1.99815 72.5392 2.57754L71.4995 3.62043C71.108 3.15328 70.6135 2.78387 70.0551 2.5414C69.4968 2.29893 68.8898 2.19005 68.2823 2.22335C67.6696 2.22033 67.0625 2.34146 66.4975 2.57948C65.9326 2.8175 65.4214 3.1675 64.9945 3.6085C64.5677 4.0495 64.2341 4.57242 64.0136 5.14589C63.7931 5.71937 63.6904 6.3316 63.7115 6.94588C63.6986 7.8631 63.9569 8.7636 64.4537 9.53376C64.9505 10.3039 65.6635 10.9093 66.5029 11.2734C67.3423 11.6375 68.2704 11.7442 69.1701 11.5798C70.0698 11.4155 70.9008 10.9876 71.5584 10.35C72.162 9.69387 72.5102 8.84178 72.5392 7.94942H68.2823V6.53266H73.9909C74.0432 6.82489 74.0695 7.12122 74.0694 7.41813ZM83.0541 2.49883H77.7574V6.2375H82.5832V7.65426H77.7574V11.3929H83.0541V12.849H76.188V1.04271H83.0541V2.49883ZM89.4885 12.849H87.978V2.49883H84.6823V1.04271H92.8627V2.49883H89.4885V12.849ZM98.6301 12.849V1.04271H100.141V12.849H98.6301ZM106.85 12.849H105.339V2.49883H102.044V1.04271H110.126V2.49883H106.85V12.849ZM125.447 11.3142C124.3 12.4581 122.748 13.1003 121.131 13.1003C119.514 13.1003 117.962 12.4581 116.815 11.3142C115.701 10.1307 115.08 8.56421 115.08 6.93604C115.08 5.30787 115.701 3.7414 116.815 2.55786C117.381 1.98671 118.053 1.53341 118.794 1.22408C119.534 0.914743 120.329 0.755488 121.131 0.755488C121.933 0.755488 122.728 0.914743 123.469 1.22408C124.209 1.53341 124.882 1.98671 125.447 2.55786C126.566 3.73914 127.19 5.30646 127.19 6.93604C127.19 8.56562 126.566 10.1329 125.447 11.3142ZM117.933 10.3304C118.783 11.1787 119.932 11.655 121.131 11.655C122.33 11.655 123.479 11.1787 124.329 10.3304C125.167 9.4036 125.631 8.19713 125.631 6.94588C125.631 5.69462 125.167 4.48816 124.329 3.5614C123.479 2.71307 122.33 2.23678 121.131 2.23678C119.932 2.23678 118.783 2.71307 117.933 3.5614C117.095 4.48816 116.631 5.69462 116.631 6.94588C116.631 8.19713 117.095 9.4036 117.933 10.3304ZM129.311 12.849V1.04271H131.155L136.884 10.232V1.04271H138.394V12.849H136.825L130.842 3.22688V12.849H129.311Z" fill="white"/>
<path fill-rule="evenodd" clip-rule="evenodd" d="M121.131 0.95226C120.355 0.95226 119.586 1.10638 118.869 1.40573C118.153 1.70478 117.503 2.14285 116.956 2.69476C115.877 3.84156 115.276 5.35893 115.276 6.93604C115.276 8.51294 115.877 10.0301 116.956 11.1769C118.066 12.2828 119.567 12.9035 121.131 12.9035C122.696 12.9035 124.197 12.2827 125.307 11.1766C126.39 10.0322 126.994 8.51423 126.994 6.93604C126.994 5.35765 126.39 3.83954 125.306 2.69501C124.759 2.14299 124.109 1.70482 123.393 1.40573C122.676 1.10638 121.908 0.95226 121.131 0.95226ZM118.718 1.04242C119.483 0.723108 120.303 0.558716 121.131 0.558716C121.959 0.558716 122.779 0.723108 123.544 1.04242C124.309 1.36173 125.003 1.82966 125.586 2.41923L125.589 2.42228C126.743 3.64013 127.386 5.25601 127.386 6.93604C127.386 8.61607 126.743 10.2319 125.589 11.4498L125.585 11.4538C124.402 12.6344 122.8 13.297 121.131 13.297C119.462 13.297 117.861 12.6343 116.677 11.4537L116.673 11.4494C115.523 10.2293 114.883 8.61446 114.883 6.93604C114.883 5.25762 115.524 3.6428 116.673 2.42273L116.676 2.41918C117.26 1.82962 117.954 1.36173 118.718 1.04242ZM68.2779 0.963955C67.4998 0.94656 66.7264 1.08952 66.0055 1.38398C65.2846 1.67844 64.6317 2.11814 64.087 2.67587L64.0861 2.67687C63.256 3.51492 62.691 4.58004 62.4618 5.73878C62.2326 6.89752 62.3495 8.09833 62.7977 9.19076C63.2459 10.2832 64.0055 11.2186 64.9815 11.8799C65.9574 12.5412 67.1062 12.8988 68.2838 12.9081L68.2893 12.9081C69.0634 12.9358 69.8346 12.7995 70.5527 12.5082C71.2707 12.2168 71.9194 11.777 72.4566 11.2173C72.9364 10.7148 73.3094 10.1198 73.5529 9.46829C73.7965 8.81675 73.9055 8.12235 73.8734 7.42724L74.0694 7.41813L73.8732 7.41805C73.8733 7.18755 73.8568 6.95742 73.824 6.72943H68.4785V7.75264H72.7419L72.7353 7.95584C72.7047 8.89542 72.3381 9.7926 71.7026 10.4835L71.6949 10.4917C71.0096 11.1563 70.1431 11.6021 69.2052 11.7734C68.2674 11.9447 67.3 11.8336 66.425 11.454C65.5501 11.0744 64.8068 10.4435 64.289 9.64065C63.772 8.83919 63.5028 7.90233 63.5153 6.94789C63.4939 6.30874 63.6011 5.67181 63.8305 5.0751C64.0605 4.4769 64.4086 3.93145 64.8538 3.47144C65.299 3.01143 65.8323 2.64634 66.4216 2.39806C67.0091 2.15054 67.6403 2.0242 68.2774 2.02655C68.9134 1.9926 69.5486 2.10701 70.1331 2.36082C70.654 2.58702 71.1219 2.91842 71.5081 3.33352L72.2686 2.57071C71.8081 2.07982 71.2464 1.69434 70.6218 1.44165L70.618 1.4401C69.8802 1.12337 69.0855 0.96132 68.283 0.964003L68.2779 0.963955ZM74.2656 7.41361C74.2994 8.16045 74.182 8.90644 73.9203 9.60648C73.658 10.3079 73.2564 10.9487 72.7398 11.4897C72.1643 12.0893 71.469 12.5609 70.6998 12.873C69.9315 13.1848 69.1063 13.3308 68.278 13.3016C67.0241 13.2912 65.801 12.9101 64.7618 12.206C63.7219 11.5014 62.9125 10.5046 62.4348 9.34054C61.9572 8.17647 61.8328 6.89691 62.077 5.66219C62.3211 4.42769 62.923 3.29291 63.8073 2.39999C64.3894 1.80402 65.0872 1.33417 65.8575 1.0195C66.6273 0.705045 67.4532 0.552222 68.2842 0.570453C69.1387 0.56794 69.9848 0.740462 70.7705 1.07745C71.5083 1.37631 72.1652 1.84611 72.6873 2.44842L72.8073 2.58691L71.487 3.91126L71.3494 3.74705C70.9774 3.30326 70.5076 2.95232 69.9772 2.72198C69.4468 2.49163 68.8702 2.38819 68.293 2.41982L68.2813 2.42046C67.695 2.41758 67.1141 2.53314 66.5735 2.7609C66.0329 2.98866 65.5437 3.32358 65.1353 3.74557C64.7269 4.16756 64.4076 4.66793 64.1966 5.21669C63.9856 5.76545 63.8873 6.35129 63.9076 6.93909L63.9079 6.94865C63.8956 7.827 64.1427 8.68934 64.6184 9.42687C65.0941 10.1644 65.777 10.7441 66.5808 11.0928C67.3846 11.4415 68.2733 11.5436 69.1349 11.3863C69.9947 11.2292 70.789 10.8208 71.418 10.2125C71.9415 9.64165 72.2612 8.91496 72.3307 8.14619H68.0861V6.33589H74.155L74.184 6.49787C74.2381 6.80011 74.2654 7.10655 74.2656 7.41361ZM75.9919 0.845939H83.2502V2.6956H77.9536V6.04072H82.7794V7.85103H77.9536V11.1962H83.2502V13.0458H75.9919V0.845939ZM76.3842 1.23948V12.6523H82.8579V11.5897H77.5612V7.45749H82.3871V6.43427H77.5612V2.30205H82.8579V1.23948H76.3842ZM84.4861 0.845939H93.0588V2.6956H89.6847V13.0458H87.7818V2.6956H84.4861V0.845939ZM84.8785 1.23948V2.30205H88.1742V12.6523H89.2923V2.30205H92.6665V1.23948H84.8785ZM98.434 0.845939H100.337V13.0458H98.434V0.845939ZM98.8263 1.23948V12.6523H99.9445V1.23948H98.8263ZM101.847 0.845939H110.322V2.6956H107.046V13.0458H105.143V2.6956H101.847V0.845939ZM102.24 1.23948V2.30205H105.535V12.6523H106.654V2.30205H109.93V1.23948H102.24ZM129.115 0.845939H131.264L136.688 9.54612V0.845939H138.59V13.0458H136.716L131.038 3.91418V13.0458H129.115V0.845939ZM129.508 1.23948V12.6523H130.645V2.53959L136.934 12.6523H138.198V1.23948H137.08V10.9178L131.047 1.23948H129.508ZM117.795 3.42197C118.681 2.53691 119.881 2.04001 121.131 2.04001C122.382 2.04001 123.581 2.53691 124.467 3.42197L124.474 3.42902C125.345 4.39198 125.827 5.64575 125.827 6.94588C125.827 8.24601 125.345 9.4996 124.474 10.4626L124.467 10.47C123.581 11.355 122.382 11.8517 121.131 11.8517C119.881 11.8517 118.681 11.3548 117.795 10.4698L117.933 10.3304L117.788 10.4626C116.917 9.4996 116.435 8.24601 116.435 6.94588C116.435 5.64575 116.917 4.39215 117.788 3.42919L117.795 3.42197ZM118.075 10.1945C118.888 11.0039 119.986 11.4582 121.131 11.4582C122.276 11.4582 123.375 11.0039 124.187 10.1945C124.99 9.3044 125.435 8.1466 125.435 6.94588C125.435 5.74516 124.99 4.58736 124.187 3.69729C123.375 2.8879 122.276 2.43355 121.131 2.43355C119.986 2.43355 118.888 2.8879 118.075 3.69729C117.272 4.58736 116.827 5.74516 116.827 6.94588C116.827 8.1466 117.272 9.3044 118.075 10.1945Z" fill="white"/>
</g>
<g id="Group 2">
<path id="Vector_3" d="M1.64575 1.98223C1.00636 2.75182 0.683628 3.73703 0.743355 4.73704V48.2631C0.683628 49.2631 1.00636 50.2483 1.64575 51.0179L1.78307 51.1556L26.0888 26.7952V26.2246L1.78307 1.84448L1.64575 1.98223Z" fill="url(#paint0_linear_528_72)"/>
<path id="Vector_4" d="M34.1329 34.9219L26.0898 26.7953V26.2246L34.1329 18.0782L34.3094 18.1766L43.9415 23.6666C46.6879 25.2211 46.6879 27.7791 43.9415 29.3533L34.3487 34.8236L34.1329 34.9219Z" fill="url(#paint1_linear_528_72)"/>
<path id="Vector_5" d="M34.368 34.8038L26.0895 26.5L1.64648 51.0178C2.20629 51.5114 2.92041 51.7934 3.66544 51.8149C4.41048 51.8365 5.13962 51.5963 5.72686 51.1359L34.3876 34.8038" fill="url(#paint2_linear_528_72)"/>
<path id="Vector_6" d="M34.3681 18.1963L5.70733 1.86422C5.12009 1.4038 4.39095 1.16362 3.64592 1.18517C2.90088 1.20673 2.18675 1.48868 1.62695 1.98229L26.0896 26.5001L34.3681 18.1963Z" fill="url(#paint3_linear_528_72)"/>
<path id="Vector_7" opacity="0.2" d="M34.1326 34.6267L5.70725 50.8604C5.14088 51.2852 4.45269 51.5147 3.74552 51.5147C3.03836 51.5147 2.35017 51.2852 1.7838 50.8604L1.64648 50.9982L1.7838 51.1359C2.34889 51.5637 3.03756 51.7951 3.74552 51.7951C4.45348 51.7951 5.14216 51.5637 5.70725 51.1359L34.368 34.8038L34.1326 34.6267Z" fill="#1A2630"/>
<path id="Vector_8" opacity="0.12" d="M1.64575 50.7423C1.00636 49.9727 0.683628 48.9875 0.743355 47.9875V48.2827C0.683628 49.2827 1.00636 50.2679 1.64575 51.0375L1.78307 50.8997L1.64575 50.7423ZM43.9404 29.058L34.1318 34.6267L34.3084 34.8038L43.9404 29.3335C44.487 29.076 44.9561 28.6784 45.3005 28.1809C45.645 27.6834 45.8525 27.1036 45.9022 26.5C45.7918 27.0484 45.5576 27.5642 45.2176 28.0076C44.8775 28.4511 44.4406 28.8104 43.9404 29.058Z" fill="#1A2630"/>
<path id="Vector_9" opacity="0.25" d="M5.70738 2.13889L43.9413 23.9412C44.4415 24.1889 44.8784 24.5482 45.2184 24.9917C45.5585 25.4351 45.7927 25.9509 45.903 26.4993C45.8534 25.8957 45.6458 25.3158 45.3014 24.8183C44.957 24.3209 44.4878 23.9233 43.9413 23.6658L5.70738 1.8634C2.96097 0.308901 0.724609 1.6076 0.724609 4.75596V5.05111C0.783461 1.88308 2.98059 0.584385 5.70738 2.13889Z" fill="white"/>
</g>
</g>
<defs>
<linearGradient id="paint0_linear_528_72" x1="23.9309" y1="4.28446" x2="-9.08733" y2="37.202" gradientUnits="userSpaceOnUse">
<stop stop-color="#00A0FF"/>
<stop offset="0.01" stop-color="#00A1FF"/>
<stop offset="0.26" stop-color="#00BEFF"/>
<stop offset="0.51" stop-color="#00D2FF"/>
<stop offset="0.76" stop-color="#00DFFF"/>
<stop offset="1" stop-color="#00E3FF"/>
</linearGradient>
<linearGradient id="paint1_linear_528_72" x1="47.5314" y1="26.5001" x2="0.0774406" y2="26.5001" gradientUnits="userSpaceOnUse">
<stop stop-color="#FFE000"/>
<stop offset="0.41" stop-color="#FFBD00"/>
<stop offset="0.78" stop-color="#FFA500"/>
<stop offset="1" stop-color="#FF9C00"/>
</linearGradient>
<linearGradient id="paint2_linear_528_72" x1="29.8756" y1="31.0258" x2="-14.9094" y2="75.6546" gradientUnits="userSpaceOnUse">
<stop stop-color="#FF3A44"/>
<stop offset="1" stop-color="#C31162"/>
</linearGradient>
<linearGradient id="paint3_linear_528_72" x1="-4.51323" y1="-12.5002" x2="15.4787" y2="7.43083" gradientUnits="userSpaceOnUse">
<stop stop-color="#32A071"/>
<stop offset="0.07" stop-color="#2DA771"/>
<stop offset="0.48" stop-color="#15CF74"/>
<stop offset="0.8" stop-color="#06E775"/>
<stop offset="1" stop-color="#00F076"/>
</linearGradient>
</defs>
</svg>
