<svg width="39" height="39" viewBox="0 0 39 39" fill="none" xmlns="http://www.w3.org/2000/svg">
<path id="Logo" fill-rule="evenodd" clip-rule="evenodd" d="M36.6933 27.4716C32.2291 37.0291 20.8623 41.1579 11.3049 36.6937C4.40518 33.4709 0.33468 26.6507 0.28401 19.5108C0.279653 18.8969 0.762481 18.3998 1.37409 18.3467L6.79908 17.8753C6.79928 17.8753 6.79945 17.8755 6.79943 17.8757C6.7994 17.8759 6.79957 17.876 6.79978 17.876L12.241 17.4035C13.1507 17.2198 13.9717 16.6532 14.4523 15.7951C14.4608 15.7763 14.4694 15.7576 14.4782 15.7388C15.8033 12.9018 19.1775 11.6762 22.0145 13.0013C23.4656 13.6792 24.4952 14.8931 24.9774 16.297C24.9775 16.2972 24.9777 16.2974 24.978 16.2974C24.9784 16.2973 24.9786 16.297 24.9785 16.2966C24.8109 15.8063 24.5763 15.3392 24.2801 14.9101C24.2797 14.9095 24.2799 14.9087 24.2806 14.9085C24.281 14.9083 24.2815 14.9085 24.2818 14.9088C24.5709 15.3 24.9589 15.6268 25.4306 15.8471C25.8747 16.0546 26.3435 16.1446 26.8021 16.1299C26.8047 16.1298 26.8069 16.1315 26.8077 16.134C26.8084 16.1365 26.8109 16.1382 26.8135 16.138L30.0179 15.8597C30.7945 15.7923 31.3146 15.025 31.0026 14.3105C29.8115 11.5834 27.6607 9.26209 24.7526 7.90371C18.4097 4.941 10.8661 7.68114 7.90338 14.024C7.71032 14.4373 7.54148 14.8557 7.39627 15.2776C7.1391 16.0249 6.2996 16.4463 5.5836 16.1119L2.01874 14.4467C1.46832 14.1896 1.18453 13.5671 1.38855 12.9949C1.59114 12.4267 1.82236 11.8629 2.08282 11.3053C6.54705 1.74783 17.9138 -2.38103 27.4713 2.08319C33.9089 5.09018 37.8836 11.2289 38.4282 17.8369C38.4387 17.9641 38.3438 18.0752 38.2167 18.0864L37.9859 18.1066C37.9848 18.1067 37.984 18.1077 37.9841 18.1088C37.9842 18.1099 37.9834 18.1109 37.9823 18.111L33.6224 18.4896L32.0443 18.6281C32.0439 18.6281 32.0436 18.6278 32.0435 18.6274C32.0435 18.627 32.0432 18.6267 32.0428 18.6268L27.0697 19.0586C27.0652 19.059 27.0617 19.0625 27.0612 19.0669C27.0607 19.0709 27.0577 19.0742 27.0537 19.0751C26.089 19.2722 25.2133 19.8499 24.6613 20.7231C23.2781 23.4275 19.9901 24.571 17.2157 23.2751C16.4703 22.927 15.8362 22.4374 15.3304 21.8534C15.3294 21.8523 15.328 21.8518 15.3265 21.8521C15.325 21.8524 15.3235 21.8518 15.3226 21.8506C14.9546 21.393 14.479 21.0103 13.911 20.745C13.4152 20.5134 12.8959 20.3932 12.3814 20.374C12.3746 20.3738 12.3687 20.3693 12.3668 20.3628C12.3647 20.3556 12.3578 20.3509 12.3503 20.3515L8.05222 20.7248C7.36279 20.7846 6.85326 21.4041 7.00071 22.0803C7.81423 25.8108 10.2972 29.1326 14.0237 30.8732C20.3665 33.8359 27.9102 31.0958 30.8729 24.7529C31.1291 24.2045 31.7754 23.9327 32.3246 24.1874L36.1097 25.9425C36.6913 26.2121 36.9646 26.8909 36.6933 27.4716ZM18.4759 20.6279C19.8351 21.2628 21.4516 20.6756 22.0865 19.3164C22.7214 17.9572 22.1342 16.3407 20.775 15.7059C19.4158 15.071 17.7993 15.6582 17.1645 17.0174C16.5296 18.3765 17.1168 19.993 18.4759 20.6279Z" fill="url(#paint0_linear_1_12085)"/>
<defs>
<linearGradient id="paint0_linear_1_12085" x1="27.0977" y1="1.96308" x2="11.3049" y2="36.6937" gradientUnits="userSpaceOnUse">
<stop stop-color="#3256B5"/>
<stop offset="0.471171" stop-color="#6EC3FE"/>
<stop offset="1" stop-color="#3355B9"/>
</linearGradient>
</defs>
</svg>
