<svg width="48" height="48" viewBox="0 0 48 48" fill="none" xmlns="http://www.w3.org/2000/svg">
<g id="mdi:car-rental">
<path id="Vector" d="M18 0C14.6 0 12 2.6 12 6C12 9.4 14.6 12 18 12C20.6 12 22.8 10.4 23.6 8H28V12H32V8H36V4H23.6C22.8 1.6 20.6 0 18 0ZM18 4C19.2 4 20 4.8 20 6C20 7.2 19.2 8 18 8C16.8 8 16 7.2 16 6C16 4.8 16.8 4 18 4ZM13 16C11.6 16 10.6 16.8 10.2 18L6 30V46C6 47.2 6.8 48 8 48H10C11.2 48 12 47.2 12 46V44H36V46C36 47.2 36.8 48 38 48H40C41.2 48 42 47.2 42 46V30L37.8 18C37.4 16.8 36.2 16 35 16H13ZM13 19H35L38 28H10L13 19ZM13 32C14.6 32 16 33.4 16 35C16 36.6 14.6 38 13 38C11.4 38 10 36.6 10 35C10 33.4 11.4 32 13 32ZM35 32C36.6 32 38 33.4 38 35C38 36.6 36.6 38 35 38C33.4 38 32 36.6 32 35C32 33.4 33.4 32 35 32Z" fill="#3355B9"/>
</g>
</svg>
